<mxfile host="app.diagrams.net" modified="2024-06-26T02:58:15.924Z" agent="Mozilla/5.0 (Macintosh; Intel Mac OS X 10_15_7) AppleWebKit/605.1.15 (KHTML, like Gecko) Version/17.5 Safari/605.1.15" version="24.6.3" etag="7d_W5N3KhdFelc50BYcT" type="github">
  <diagram name="Page-1" id="fnegSv5LVwJ1nEWSjADe">
    <mxGraphModel>
      <root>
        <mxCell id="0" />
        <mxCell id="1" parent="0" />
      </root>
    </mxGraphModel>
  </diagram>
</mxfile>
